<?xml version="1.0" standalone="no"?><!DOCTYPE svg PUBLIC "-//W3C//DTD SVG 1.1//EN" "http://www.w3.org/Graphics/SVG/1.1/DTD/svg11.dtd"><svg class="icon" height="512" viewBox="0 0 1024 1024" version="1.1" xmlns="http://www.w3.org/2000/svg"><path d="M1024 512c0 18.8416-15.291733 34.133333-34.133333 34.133333L34.133333 546.133333c-18.8416 0-34.133333-15.291733-34.133333-34.133333l0 0c0-18.8416 15.291733-34.133333 34.133333-34.133333l955.733333 0C1008.708267 477.866667 1024 493.1584 1024 512L1024 512zM341.333333 0 136.533333 0C61.1328 0 0 61.1328 0 136.533333l0 204.8c0 18.8416 15.291733 34.133333 34.133333 34.133333s34.133333-15.291733 34.133333-34.133333L68.266667 136.533333c0-37.700267 30.5664-68.266667 68.266667-68.266667l204.8 0c18.8416 0 34.133333-15.291733 34.133333-34.133333S360.174933 0 341.333333 0zM0 682.666667l0 204.8c0 75.400533 61.1328 136.533333 136.533333 136.533333l204.8 0c18.8416 0 34.133333-15.291733 34.133333-34.133333s-15.291733-34.133333-34.133333-34.133333L136.533333 955.733333c-37.700267 0-68.266667-30.5664-68.266667-68.266667L68.266667 682.666667c0-18.8416-15.291733-34.133333-34.133333-34.133333S0 663.825067 0 682.666667zM682.666667 0l204.8 0c75.400533 0 136.533333 61.1328 136.533333 136.533333l0 204.8c0 18.8416-15.291733 34.133333-34.133333 34.133333s-34.133333-15.291733-34.133333-34.133333L955.733333 136.533333c0-37.700267-30.5664-68.266667-68.266667-68.266667L682.666667 68.266667c-18.8416 0-34.133333-15.291733-34.133333-34.133333S663.825067 0 682.666667 0zM1024 682.666667l0 204.8c0 75.400533-61.1328 136.533333-136.533333 136.533333L682.666667 1024c-18.8416 0-34.133333-15.291733-34.133333-34.133333s15.291733-34.133333 34.133333-34.133333l204.8 0c37.700267 0 68.266667-30.5664 68.266667-68.266667L955.733333 682.666667c0-18.8416 15.291733-34.133333 34.133333-34.133333S1024 663.825067 1024 682.666667z" /></svg>